PathFileType	4	(X/Y/Z)	Patient4_TMGait_0pt4_02_right_24.trc.trc
DataRate	CameraRate	NumFrames	NumMarkers	Units	OrigDataRate	OrigDataStartFrame	OrigNumFrames
71.794871794872	71.794871794872	5	33	mm	71.794871794872	71	       141
Frame#	Time	Sacral			L.Shoulder			Chest			R.Shoulder			Neck			R.ASIS			L.ASIS			R.Thigh.Superior			R.Thigh.Lateral			R.Thigh.Inferior			R.Patella			L.Thigh.Superior			L.Thigh.Lateral			L.Thigh.Inferior			L.Patella			L.Shank.Superior			L.Shank.Lateral			L.Shank.Inferior			R.Shank.Superior			R.Shank.Lateral			R.Shank.Inferior			R.Heel			R.Midfoot.Superior			R.Midfoot.Lateral			R.Toe			L.Heel			L.Midfoot.Lateral			L.Midfoot.Superior			L.Toe			L.Elbow			L.Wrist			R.Elbow			R.Wrist			
		X1	Y1	Z1	X2	Y2	Z2	X3	Y3	Z3	X4	Y4	Z4	X5	Y5	Z5	X6	Y6	Z6	X7	Y7	Z7	X8	Y8	Z8	X9	Y9	Z9	X10	Y10	Z10	X11	Y11	Z11	X12	Y12	Z12	X13	Y13	Z13	X14	Y14	Z14	X15	Y15	Z15	X16	Y16	Z16	X17	Y17	Z17	X18	Y18	Z18	X19	Y19	Z19	X20	Y20	Z20	X21	Y21	Z21	X22	Y22	Z22	X23	Y23	Z23	X24	Y24	Z24	X25	Y25	Z25	X26	Y26	Z26	X27	Y27	Z27	X28	Y28	Z28	X29	Y29	Z29	X30	Y30	Z30	X31	Y31	Z31	X32	Y32	Z32	X33	Y33	Z33	

71	32.475000000000	927.415111653613	999.056517544571	514.558707825025	1084.262044342582	1428.870817683307	320.786437534574	1206.372768403427	1357.476697005738	465.621571977775	1147.961044217223	1429.804898033868	649.563029976430	1102.559489947159	1489.272082186435	475.986093019707	1164.026436464211	936.877651877358	612.780074271461	1127.875837202738	955.693287937414	339.713492560533	1168.038277059773	725.408032090502	584.860774514018	1070.250971851556	627.962133293018	651.730751524901	1129.931340042444	564.406920993946	569.727735902984	1112.695288972261	477.840483199043	574.896685681651	1201.294296175669	762.744826233011	364.873051425927	1142.734554596933	636.651676015394	290.987976209547	1245.543547060944	575.664916027133	349.615376731877	1265.220835713900	507.543081885966	347.384414050453	1244.261406349169	435.364923760826	335.290924836186	1166.943088866715	312.308888412036	283.592072474599	1245.663792541794	205.365410587331	335.854661348700	1074.085428299333	393.524161223800	584.079622593073	993.207191230598	300.656075242114	652.473944133275	1016.200026801804	201.033840514482	586.399744779654	864.868758404424	44.196586135514	564.373708297238	1036.874630190537	95.801446654816	594.233098997470	950.173771318999	37.064381861483	636.498558432087	1158.011985102871	42.078921757980	618.280999176746	1145.549674034438	40.450895492774	374.336761986775	1216.740251704492	37.649777606546	291.677332177253	1298.321075768316	102.384465922097	314.204838002074	1426.577311655746	55.317867555388	281.949697719808	957.154708770352	1094.410397412720	233.333441242134	963.361735441938	831.468345628849	233.341042431763	1262.092961144031	1104.432923668516	761.014056017118	1500.862604692042	1126.436272424738	682.630696567933	
72	32.488928571429	928.576370751608	998.186812452070	511.400739420899	1084.738632145747	1427.742090379644	316.934364981574	1206.620733332742	1357.264665846361	462.433148495582	1147.110698271815	1429.863843361304	645.947176443399	1102.522840148959	1488.762416205556	471.933594561908	1165.173102022039	936.411437113288	610.515561707028	1129.693864298801	954.992638869068	337.581945650126	1169.098070059373	724.621136251582	582.961506052439	1070.596913038233	627.506794083854	649.637786900991	1130.143270891233	563.441052870804	567.956627441607	1112.375807655809	476.468446575255	573.155761995782	1202.845279727986	761.046951850885	363.630438268977	1143.296186934476	635.559257299955	290.088659069951	1245.382884744630	574.138265468530	349.649657706315	1263.725359828810	505.155269469069	347.768998477404	1242.310124033243	432.823190501047	335.409431427524	1163.635224299231	310.661718858812	283.648455460021	1240.164877009494	202.766739031624	336.891951102986	1072.610226814238	392.663506787778	582.610573638405	990.644269443957	301.014285021918	651.406740713888	1012.304259136636	200.885805320723	585.803895509025	859.445855146979	45.073245665941	564.506774062776	1031.624557355780	95.927950823441	594.233900320587	944.753247459272	37.406252666181	636.505493832811	1152.542699825173	41.681728837714	618.380486904799	1137.250191685683	39.327534490079	375.200250505890	1208.433238390740	36.367607158285	292.465632688473	1290.782883949874	99.828594220553	315.801110537494	1418.741121495472	51.349458575885	283.239312089716	960.957662834608	1091.950197152672	229.165806619969	969.789857251712	829.031572751870	229.030752392150	1259.453378471974	1103.855255237614	758.635818860450	1498.677039412025	1123.016274899062	680.437349901865	
73	32.502857142857	929.575928950498	997.615441137394	508.274907245424	1085.396184497238	1426.790035518219	312.998367491983	1207.035890677036	1357.112349355438	459.110601338744	1146.631773364527	1430.120458963043	642.199503372737	1102.746747707577	1488.431685659416	467.760558616404	1166.197526724395	936.093400135394	608.012005738708	1131.149386986467	954.600767594685	335.196862916371	1170.164826735644	724.045544025396	580.774661831244	1071.212133378675	627.172284487781	647.374625148747	1130.683888144577	562.626252748772	566.009997449082	1112.529725059156	475.138593727167	571.369969431656	1204.314040141198	760.046057269282	362.191468594879	1144.136224090661	635.054465140975	288.901561503163	1245.512072966333	573.239427672437	349.325559607942	1262.633557239699	503.479158153865	347.777776770216	1240.874133498191	430.969738412199	335.220353665421	1161.177113841052	309.621406211702	283.205026058750	1235.470969811589	200.907184667408	337.540783305314	1071.473930189893	391.913905094493	581.092995204580	988.333247827701	301.585766450990	650.287855914870	1008.606873934715	200.916836419936	585.210461349382	854.082974377520	46.332123128210	564.671279460980	1026.517985495472	96.141342275911	594.274421636849	939.400508135077	37.925291587575	636.509593007927	1147.128922179613	41.214331314070	618.479322015531	1130.033126563603	38.642795569639	375.645938327240	1201.245203936933	35.665913575041	292.882164478379	1284.124880387572	98.178155499238	316.918093708315	1411.887600162066	48.658173038581	284.132586724865	965.373221828545	1089.571111575157	224.676167962811	977.183480168369	826.717687349083	224.229323480166	1256.225942937826	1103.261005391883	756.426829530471	1496.044036337542	1118.320856920569	678.597096693389	
74	32.516785714286	930.405387466692	997.355224026300	505.155792012087	1086.191371347980	1426.060033207775	309.022849911622	1207.598168116280	1357.037754917310	455.668701821541	1146.533867214323	1430.577880065980	638.351375852527	1103.215065398050	1488.297657854231	463.523101305174	1167.083447722058	935.954638802888	605.258115190657	1132.248941269440	954.515082569055	332.511390489496	1171.165801053369	723.714485004469	578.324321463462	1072.023672742461	626.998089322956	644.978432651832	1131.513509633370	562.003315586842	563.949160306983	1113.139061850980	473.883396816944	569.639125628593	1205.697321452347	759.748668427893	360.464847753484	1145.191205810059	635.044319841316	287.442283477620	1245.894757542870	572.869070181722	348.555786679934	1261.921830365811	502.427103371745	347.385710539201	1239.885241759533	429.715569746583	334.757663310792	1159.428163332206	309.111381175333	282.350527788643	1231.452999940454	199.688542769195	337.859008709142	1070.652127528116	391.306950806523	579.595165859967	986.236302599033	302.400992640741	649.148861826504	1005.108704476341	201.159525424467	584.656525849756	848.785244862631	48.014768198683	564.862413115838	1021.572607214266	96.449436882520	594.366990479840	934.114689933917	38.642423334496	636.510979681149	1141.767181758522	40.694213560112	618.574750872023	1123.730756735573	38.336826486162	375.767856574004	1194.993370896388	35.426680952794	293.012504406672	1278.215668758344	97.282994717050	317.607498208273	1405.861096153319	47.008872441582	284.662087419650	970.279772666859	1087.377930078289	219.897916096335	985.519883654051	824.651635063549	218.977368159400	1252.452762686208	1102.684900805134	754.354642353077	1492.942940429188	1112.316252374921	677.108447919950	
75	32.530714285714	931.070779959912	997.391016892978	501.993703045324	1087.072970193594	1425.579636426623	305.040771093200	1208.274649845037	1357.058323052536	452.123933386507	1146.776556127530	1431.219918052271	634.433165405309	1103.887906074752	1488.362774634150	459.270701323098	1167.830022657814	936.010721880422	602.255992418630	1133.046869596699	954.703913410497	329.505478961608	1172.057812833177	723.638557758382	575.658280904028	1072.966094194353	627.005519549935	642.490014577117	1132.598671738610	561.595281375368	561.835526030448	1114.185159123857	472.723760421792	568.055590062642	1206.990900406737	760.059595275793	358.372183830540	1146.315181496902	635.374293268192	285.746507544524	1246.420540326182	572.861234936093	347.296382296708	1261.487229057964	501.852378665532	346.612773479785	1239.197362068799	428.921404810809	334.072844246088	1158.158436506242	309.004027079045	281.210037058680	1227.919217170340	198.966281827860	337.925040233673	1070.125381481205	390.859399785167	578.180927550302	984.321412246691	303.477162078038	648.018728632694	1001.811234014409	201.633605722259	584.175999898218	843.559375787319	50.144058017305	565.072408251456	1016.801783392111	96.851704548413	594.519281838647	928.892326489870	39.569931493254	636.508751285416	1136.449442642540	40.147618999525	618.662319999845	1118.111589329988	38.320760147603	375.668112262225	1189.433073163748	35.512508876405	292.948831163253	1272.865965927623	96.950447635885	317.956013890204	1400.448637475886	46.118365874134	284.892810428280	975.527450411722	1085.457328264505	214.863993919654	994.762896669634	822.950265503694	213.321333253351	1248.193182087885	1102.156192179908	752.379640265535	1489.342749090328	1104.979369584321	675.965180163517	
